<?xml version="1.0" standalone="no"?>
<!DOCTYPE svg PUBLIC "-//W3C//DTD SVG 1.1//EN" "http://www.w3.org/Graphics/SVG/1.1/DTD/svg11.dtd" >
<svg xmlns="http://www.w3.org/2000/svg">
<metadata>
Created by FontForge 20120731 at Mon Dec 26 17:20:13 2016
 By admin
</metadata>
<defs>
<font id="tp" horiz-adv-x="1024" >
  <font-face 
    font-family="tp"
    font-weight="500"
    font-stretch="normal"
    units-per-em="1024"
    panose-1="2 0 6 3 0 0 0 0 0 0"
    ascent="896"
    descent="-128"
    x-height="792"
    bbox="0 -128 1024 896"
    underline-thickness="0"
    underline-position="0"
    unicode-range="U+0078-E85B"
  />
<missing-glyph 
 />
    <glyph glyph-name=".notdef" 
 />
    <glyph glyph-name=".notdef" 
 />
    <glyph glyph-name=".null" horiz-adv-x="0" 
 />
    <glyph glyph-name="nonmarkingreturn" horiz-adv-x="341" 
 />
    <glyph glyph-name="x" unicode="x" horiz-adv-x="1001" 
d="M281 543q-27 -1 -53 -1h-83q-18 0 -36.5 -6t-32.5 -18.5t-23 -32t-9 -45.5v-76h912v41q0 16 -0.5 30t-0.5 18q0 13 -5 29t-17 29.5t-31.5 22.5t-49.5 9h-133v-97h-438v97zM955 310v-52q0 -23 0.5 -52t0.5 -58t-10.5 -47.5t-26 -30t-33 -16t-31.5 -4.5q-14 -1 -29.5 -0.5
t-29.5 0.5h-32l-45 128h-439l-44 -128h-29h-34q-20 0 -45 1q-25 0 -41 9.5t-25.5 23t-13.5 29.5t-4 30v167h911zM163 247q-12 0 -21 -8.5t-9 -21.5t9 -21.5t21 -8.5q13 0 22 8.5t9 21.5t-9 21.5t-22 8.5zM316 123q-8 -26 -14 -48q-5 -19 -10.5 -37t-7.5 -25t-3 -15t1 -14.5
t9.5 -10.5t21.5 -4h37h67h81h80h64h36q23 0 34 12t2 38q-5 13 -9.5 30.5t-9.5 34.5q-5 19 -11 39h-368zM336 498v228q0 11 2.5 23t10 21.5t20.5 15.5t34 6h188q31 0 51.5 -14.5t20.5 -52.5v-227h-327z" />
    <glyph glyph-name="cloud-uploadd" unicode="&#xe63d;" 
d="M1024 203q0 -26 -8.5 -48.5t-24.5 -40.5t-37 -30t-46 -16l1 -1h-701q-5 -1 -17 -1q-39 0 -74 15t-61 41t-41 61t-15 75t15 75t41 61t61 41.5t74 15.5h2q-2 8 -2 15v16q0 73 28 137.5t76 112t112 75.5t136.5 28t137 -28t113 -75.5t76 -112t27.5 -137.5q0 -38 -8 -74
t-23 -69q5 1 11 1.5t11 0.5q27 0 52.5 -11t43.5 -29.5t29 -44t11 -53.5zM666 325q20 0 26 4.5t-8 21.5q-14 19 -31.5 48.5t-36.5 60t-38.5 57.5t-37.5 39q-19 13 -27.5 14t-25.5 -12q-18 -15 -35.5 -38.5t-35.5 -50.5t-36 -52.5t-36 -44.5t-13 -33t25 -14h17q9 0 19.5 -0.5
t21.5 -0.5h17q14 -1 18.5 -10t4.5 -24q0 -18 -0.5 -31t-0.5 -25.5t-0.5 -25.5t-0.5 -31q0 -7 1.5 -15t5.5 -15.5t12 -12t22 -4.5h23q9 0 28 -1q24 0 27.5 12.5t3.5 38.5q0 24 1 43t1 51q0 24 4.5 37t19.5 13q11 0 32 0.5t33 0.5z" />
    <glyph glyph-name="uploadf" unicode="&#xe640;" 
d="M994 448h-68q-12 0 -21 -9t-9 -21v-418h-768v418q0 12 -9 21t-21 9h-68q-12 0 -21 -9t-9 -21v-516q0 -12 9 -21t21 -9h964q12 0 21 9t9 21v516q0 12 -9 21t-21 9zM448 640v-416q0 -13 9.5 -22.5t22.5 -9.5h64q13 0 22.5 9.5t9.5 22.5v416h192l-256 256l-256 -256h192z
" />
    <glyph glyph-name="uploade" unicode="&#xe6cb;" 
d="M661 -64v418h239l-388 478l-388 -478h239v-418h298zM661 -64z" />
    <glyph glyph-name="downloade" unicode="&#xe65b;" 
d="M512 -63q91 0 174 35.5t143 95.5t95.5 143t35.5 174t-35.5 174t-95.5 143t-143 95.5t-174 35.5t-174 -35.5t-143 -95.5t-95.5 -143t-35.5 -174t35.5 -174t95.5 -143t143 -95.5t174 -35.5zM512 769q104 0 192.5 -51.5t140 -140t51.5 -192.5t-51.5 -192.5t-140 -140
t-192.5 -51.5t-192.5 51.5t-140 140t-51.5 192.5t51.5 192.5t140 140t192.5 51.5zM329.5 375.5q9.5 9.5 23 9.5t22.5 -10l105 -104v307q0 13 9.5 22.5t22.5 9.5t22.5 -9.5t9.5 -22.5v-308l105 106q10 10 23 10t22.5 -9.5t9.5 -22.5t-9 -23l-160 -161q-9 -9 -23 -9
q-13 0 -22 9v0v0l-160 160q-10 9 -10 22.5t9.5 23z" />
    <glyph glyph-name="uploadd" unicode="&#xe641;" 
d="M896 192l-8 16l-112 224q-8 16 -26 16h-93q-7 0 -12 -5.5t-5 -12.5v-29q0 -8 5 -13t12 -5h30q17 0 25 -15l80 -161q3 -7 0 -11.5t-10 -4.5h-126q-8 0 -13 -5t-5 -12v-91q0 -7 -5 -12.5t-12 -5.5h-219q-7 0 -12.5 5.5t-5.5 12.5v91q0 7 -5 12t-12 5h-129q-7 0 -10 4.5
t1 11.5l83 161q8 15 25 15h29q7 0 12 5.5t5 12.5v29q0 7 -5 12t-12 5h-93q-17 0 -25 -15l-113 -225q-2 -4 -3.5 -7.5t-2.5 -5.5l-1 -2v-18v-158q0 -7 5 -12t12 -5h734q7 0 12 5t5 12v159v17zM353 525h95v-268h128v268h101q7 0 8.5 4t-3.5 9l-158 179q-5 5 -11.5 5t-11.5 -5
l-155 -179q-4 -5 -2.5 -9t9.5 -4z" />
    <glyph glyph-name="uploadc" unicode="&#xe642;" 
d="M116 47h782v-13h-782v13zM112 230h13v-196h-13v196zM886 230h13v-196h-13v196zM499 751h12v-553h-12v553zM506 768l163 -159l-9 -9l-154 150l-155 -150l-9 9z" />
    <glyph glyph-name="uploadb" unicode="&#xe657;" 
d="M506 467h10v-457h-10v457zM959 234h-334v10h324v504h-875v-504h323v-10h-334v524h896v-524zM512 473l128 -124l-7 -8l-122 118l-121 -118l-7 8z" />
    <glyph glyph-name="downloadd" unicode="&#xe65c;" 
d="M515 222l-271 264h178v348h179v-348h187zM971 25l-77 214l-109 -2l45 -133h-636l45 133l-109 2l-77 -214q-1 -5 -2.5 -13.5t1.5 -27.5t16 -29q23 -20 94 -20h700q67 -4 94 20q27 23 15 70z" />
    <glyph glyph-name="downloadc" unicode="&#xe699;" 
d="M793 -66h-562q-24 0 -40.5 16.5t-16.5 39.5v0q0 24 16.5 40t40.5 16h562q24 0 40.5 -16t16.5 -40v0q0 -23 -16.5 -39.5t-40.5 -16.5zM790 525v0q-25 0 -42 -18l-180 -179v450q0 23 -16.5 39.5t-39.5 16.5t-39.5 -16.5t-16.5 -39.5v-450l-180 179q-17 18 -42 18v0
q-25 0 -42.5 -17.5t-17.5 -42.5v0q0 -25 18 -42l292 -292q12 -12 28 -12t28 12v0l292 292q17 17 17 42v0q0 25 -17 42.5t-42 17.5z" />
    <glyph glyph-name="cloud-uploadc" unicode="&#xe6f9;" 
d="M377 236q-1 0 -2 1l-2 2q0 -1 -0.5 -2t-1.5 -1h6zM652 343l-112 111l-10 10q-8 6 -18 6t-18 -6l-10 -10l-112 -111q-9 -9 -9 -22t9.5 -22t22 -9t21.5 9l65 64v-346q0 -13 9 -22t22 -9t22 9.5t9 21.5v346l65 -64q9 -9 21.5 -9t22 9t9.5 22t-9 22zM553 671q-5 1 -7 1
q-10 0 -16.5 -7t-6.5 -16q0 -7 3.5 -12.5t7.5 -7.5l4 -2q1 0 3 -0.5t3 -0.5h1h1h0.5h0.5q54 -6 90 -40q12 -9 20 -9q9 0 16 7t7 16q0 4 -3 9.5t-6 8.5l-3 3q-48 42 -115 50zM729.5 534q-0.5 1 -0.5 2l-7 14q-13 18 -24 18q-10 0 -17 -6.5t-7 -16.5l2 -10q8 -13 10 -18v0
q1 -1 2.5 -3.5t1.5 -3.5q1 -1 3 -2.5t6.5 -3.5t8.5 -1q10 0 16.5 6.5t6.5 16.5v6q-1 1 -1.5 2zM844 537q-28 107 -115.5 176t-200.5 69q-111 0 -198 -66.5t-117 -170.5q-79 -12 -132 -73t-53 -143q0 -81 54 -142t134 -73v0h140q13 0 22 9t9 22t-9 22t-22 9h-140
q-54 11 -89.5 54t-35.5 99q0 65 45.5 110.5t110.5 45.5q8 0 17 -1q12 100 87 167.5t176.5 67.5t176.5 -67.5t87 -166.5q60 -5 101 -50t41 -106q0 -56 -35.5 -99t-89.5 -54v0h-140q-13 0 -22 -9t-9 -22t9 -22t22 -9h156q74 16 123 77t49 138q0 72 -42.5 129.5t-109.5 78.5z
" />
    <glyph glyph-name="cloud-downloadd" unicode="&#xe6fa;" 
d="M608 157l-65 -64v346q0 13 -9 22t-22 9t-22 -9t-9 -22v-346l-65 64q-9 9 -21.5 9t-22 -9t-9.5 -22t9 -22l112 -111l10 -10q8 -6 18 -6t18 6l10 10l112 111q9 9 9 22t-9.5 22t-22 9t-21.5 -9zM668 621q-48 42 -115 50v0q-5 1 -7 1q-10 0 -16.5 -7t-6.5 -16q0 -16 15 -22v0
q1 0 3 -0.5l2 -0.5h2h1h0.5h0.5q54 -6 90 -40q12 -9 19 -9q10 0 17 7t7 16t-12 21zM844 537q-28 107 -115.5 176t-200.5 69q-111 0 -198 -66.5t-117 -170.5q-79 -12 -132 -73t-53 -143q0 -81 54 -142t134 -73v0h46q13 0 22.5 9t9.5 22t-9.5 22t-22.5 9h-46q-54 11 -89.5 54
t-35.5 99q0 65 45.5 110.5t110.5 45.5q8 0 17 -1q12 100 87 167.5t176.5 67.5t176.5 -67.5t87 -166.5q60 -5 101 -50t41 -106q0 -56 -35.5 -99t-89.5 -54v0h-46q-13 0 -22.5 -9t-9.5 -22t9.5 -22t22.5 -9h62q74 16 123 77t49 138q0 72 -42.5 129.5t-109.5 78.5zM730 532
q0 1 -0.5 2t-0.5 2l-7 14q-13 18 -24 18q-10 0 -17 -6.5t-7 -16.5l2 -10q8 -13 10 -18v0l5 -7q7 -7 17 -7t16.5 6.5t6.5 16.5q0 1 -1 6zM512 384z" />
    <glyph glyph-name="downloadb" unicode="&#xe65f;" 
d="M512 -66q-91 0 -174.5 35.5t-144 96t-96 144t-35.5 174.5t35.5 174.5t96 144t144 96t174.5 35.5t174.5 -35.5t144 -96t96 -144t35.5 -174.5t-35.5 -174.5t-96 -144t-144 -96t-174.5 -35.5zM512 805q-114 0 -211 -56.5t-153.5 -153.5t-56.5 -211t56.5 -211t153.5 -153.5
t211 -56.5t211 56.5t153.5 153.5t56.5 211t-56.5 211t-153.5 153.5t-211 56.5zM521 150q-6 0 -10 4l-212 212q-10 10 0 20t21 0l212 -212q10 -10 0 -20q-5 -4 -11 -4zM521 150q-6 0 -10 4q-10 10 0 20l212 212q10 10 20.5 0t-0.5 -20l-211 -212q-5 -4 -11 -4zM521 150
q-6 0 -10 4t-4 10v473q0 6 4 10t10 4t10.5 -4t4.5 -10v-473q0 -6 -4.5 -10t-10.5 -4z" />
    <glyph glyph-name="downloada" unicode="&#xe81c;" 
d="M116.5 169q-11.5 0 -20 -8t-8.5 -20v-173q0 -12 8.5 -20.5t19.5 -8.5h792q11 0 19.5 8.5t8.5 20.5v173q0 12 -8.5 20t-20 8t-20 -8t-8.5 -20v-145h-734v145q0 12 -8.5 20t-20 8zM512 843q-12 0 -20 -8t-8 -20v-608l-179 174q-9 8 -20.5 7.5t-19.5 -9t-8 -20t8 -19.5
l227 -219v0v0q1 -1 2 -1.5t2 -1.5q4 -3 5 -3q5 -2 10.5 -2t11.5 2q1 0 5 3l1.5 1t2.5 2l227 219q8 8 8 20t-8 20t-19.5 8.5t-20.5 -7.5l-179 -174v608q0 12 -8 20t-20 8z" />
    <glyph glyph-name="uploada" unicode="&#xe6a3;" 
d="M891 40h-745q-28 0 -48.5 20.5t-20.5 49.5v93q0 9 6.5 16t16 7t16.5 -7t7 -16v-93q0 -10 7 -17t16 -7h745q10 0 16.5 7t6.5 17v93q0 9 7 16t16.5 7t16.5 -7t7 -16v-93q0 -29 -20.5 -49.5t-49.5 -20.5zM768 522l-233 232q-7 7 -16.5 7t-16.5 -7l-232 -232q-7 -7 -7 -16.5
t6.5 -16.5t16.5 -7t17 7l193 193v-479q0 -10 6.5 -17t16 -7t16.5 7t7 17v479l193 -193q7 -7 16.5 -7t16.5 7t7 16.5t-7 16.5z" />
    <glyph glyph-name="cloud-downloadc" unicode="&#xe66d;" 
d="M943 451q-16 39 -45.5 68.5t-68.5 46.5q-10 4 -20 7q-31 72 -91 121q-43 35 -95 54q-53 20 -111 20q-57 0 -110 -19q-52 -19 -94 -54q-62 -50 -94 -124q-48 -18 -85 -53q-64 -64 -64 -152q0 -47 20 -89q18 -40 51 -70q50 -44 116 -57q6 -2 13 -2v0v0h0.5h0.5
q19 0 32 13.5t13 32t-13 32t-32 13.5h-0.5h-0.5v1q-47 11 -78 46t-31 80q0 50 37.5 87t91.5 41q17 79 80.5 131t146.5 52q84 0 147.5 -52.5t80.5 -133.5q3 1 5 1q51 0 87.5 -36.5t36.5 -88.5q0 -47 -31 -82t-77 -41v-1q-19 0 -32 -13t-13 -32t13 -32t32 -14v0h0.5h0.5
q4 1 7 1q31 4 60 16q39 16 68.5 46t45.5 68q17 40 17 84t-17 84zM353 145l122 -122q14 -14 33 -13q19 -1 32 13l122 122q13 12 13 30t-13 30v0q-13 13 -30.5 13t-30.5 -13l-48 -48v204q0 18 -13 30.5t-30 12.5v0q-18 0 -30.5 -12.5t-12.5 -30.5v-207v-1l-53 52
q-12 13 -30 13t-31 -13v0q-12 -12 -12 -30t12 -30z" />
    <glyph glyph-name="cloud-downloadb" unicode="&#xe67d;" 
d="M785 170h-116q-6 0 -10.5 4.5t-4.5 10.5t4.5 10.5t10.5 4.5h116q81 0 140 60.5t59 143.5q0 77 -51.5 135.5t-126.5 66.5q-10 1 -13 11q-19 77 -81 125.5t-141 48.5q-70 0 -128 -38.5t-84 -104.5q-3 -7 -10.5 -8.5t-13.5 3.5q-30 26 -69 26q-45 0 -76.5 -31.5t-31.5 -75.5
q0 -1 1 -5v-5q1 -11 -10 -15q-50 -18 -81.5 -63.5t-31.5 -100.5q0 -70 50 -121.5t118 -51.5h216q6 0 10.5 -4.5t4.5 -10.5t-4.5 -10.5t-10.5 -4.5h-216q-80 0 -139 60.5t-59 142.5q0 61 34 113t88 75v1q0 57 40.5 97t97.5 40q39 0 73 -22q33 66 95.5 105t136.5 39
q87 0 155.5 -52t92.5 -135q83 -13 139 -79t56 -151q0 -95 -68 -164.5t-161 -69.5zM544.5 -102q-6.5 0 -10.5 4.5t-4 10.5v566q0 6 4 10.5t10.5 4.5t10.5 -4.5t4 -10.5v-566q0 -6 -4 -10.5t-10.5 -4.5zM544.5 -102q-16.5 0 -24.5 14l-94 166q-7 13 6 20t20 -6l93 -163l92 163
q7 13 20 6t6 -20l-94 -166q-8 -14 -24.5 -14z" />
    <glyph glyph-name="cloud-uploadb" unicode="&#xe63f;" 
d="M736 560v6.5v6.5q0 100 -71 171.5t-172 71.5q-100 0 -171.5 -71.5t-71.5 -171.5q0 -6 1 -20q-73 -16 -121.5 -74.5t-48.5 -134.5q0 -88 62.5 -151t151.5 -63h89q2 0 4.5 0.5t6.5 4t4 10.5t-4.5 11t-10.5 4h-3h-45.5h-41.5q-76 0 -129.5 54t-53.5 130q0 68 45.5 120
t112.5 61l15 2l-2 15q-2 14 -2 30q0 88 62.5 150.5t151 62.5t150.5 -62t62 -151q0 -12 -1 -25l-2 -17h18q76 0 130.5 -54t54.5 -131t-54.5 -131t-130.5 -54h-17q-60 -2 -73 -1q-6 1 -11 -2.5t-6 -10.5q-1 -6 3 -11t10 -6h20h57h17q89 0 152 63t63 152q0 86 -58 148t-142 68z
M619 227l-97 98l-2 2v0v0l-1 1l-1 1h-1q-1 1 -2 1h-0.5h-1t-1 0.5l-0.5 0.5h-1h-2v0v0v0q-6 0 -11 -4l-2 -2l-97 -98q-11 -11 0 -21q4 -4 10 -4t10 4l75 75v-296q0 -6 4.5 -10.5t11 -4.5t10.5 4.5t4 10.5v296l75 -75q4 -4 10 -4t10 4q11 10 0 21zM502 694q6 0 10.5 4.5
t4.5 11t-4.5 10.5t-10.5 4q-67 0 -114 -47t-47 -113q0 -7 4.5 -11t10.5 -4t10.5 4t4.5 11q0 54 38.5 92t92.5 38z" />
    <glyph glyph-name="cloud-uploada" unicode="&#xe666;" 
d="M714.5 232.5q-8.5 -8.5 -20 -8.5t-19.5 9l-112 111v-340q0 -10 -7.5 -17.5t-18 -7.5t-17.5 7.5t-7 17.5v345l-117 -116q-8 -9 -19.5 -9t-19.5 8.5t-8 20t8 19.5l158 158q8 9 21 8q12 1 21 -8l157 -158q9 -8 9 -19.5t-8.5 -20zM692 657q-26 55 -83 89t-127 34
q-94 0 -160.5 -57.5t-66.5 -139.5q0 -9 2 -19q-73 -24 -118 -78.5t-45 -121.5q0 -79 59.5 -138.5t149.5 -72.5v46q-69 17 -113.5 64t-44.5 108q0 56 39.5 102t102.5 65q-1 8 -1 17q0 68 58 116.5t140 48.5q61 0 111 -29t72 -75q88 -6 148.5 -64t60.5 -138q0 -53 -28.5 -98
t-76.5 -73v-51q71 28 115.5 88.5t44.5 135.5q0 95 -69.5 164.5t-169.5 76.5z" />
    <glyph glyph-name="cloud-downloada" unicode="&#xe85b;" 
d="M1024 147q0 -25 -8.5 -47.5t-24 -41t-36.5 -30.5t-46 -16v-2h-687q-2 0 -2.5 -0.5t-2.5 -0.5t-3 0.5t-3 0.5h-6v1q-43 2 -80.5 19.5t-65 46.5t-43.5 67.5t-16 81.5t16 81t43 66.5t63.5 47t78.5 21.5q7 67 36.5 125t76 101t107 67.5t129.5 24.5q73 0 137.5 -27.5t112 -76
t75 -112.5t27.5 -136q0 -33 -6 -64.5t-17 -59.5q2 0 4.5 0.5t4.5 0.5q28 0 53 -11t43 -29.5t29 -43.5t11 -54zM687 299q12 20 7 23.5t-25 3.5q-13 0 -35 0.5t-33 0.5q-16 0 -21 13t-5 37q0 33 -0.5 53t-0.5 43q0 27 -3.5 39t-28.5 12q-19 0 -28 -0.5t-26 -0.5
q-27 0 -34 -15.5t-7 -31.5v-33q0 -13 1 -25t1 -26v-30q0 -16 -4.5 -24.5t-19.5 -8.5q-6 -1 -17 -1.5l-22 -1t-21 -0.5h-17q-21 0 -25.5 -13.5t13.5 -33.5q17 -22 37 -47t39.5 -50.5t37.5 -49.5t33 -42q28 -31 54 1q15 18 35.5 45.5t42 57.5t41 58.5t31.5 46.5z" />
  </font>
</defs>
</svg>
